#!OML:ASF X:\für Bonn\!DataBase\2005_08_10_Bjorn_Final\c3d\bjorn.ASF
:FULLY-SPECIFIED
:DEGREES
207
root 1.25109 17.7195 5.68292 -177.488 -5.60765 175.847
lowerback 4.35076 1.00329 -4.31654
upperback 11.3042 0.0214915 -4.61333
thorax 9.51777 -0.818436 -2.63482
lowerneck -8.03469 -0.566483 -7.32248
upperneck 2.27103 -0.229764 4.07173
head 2.17143 -0.0854391 2.61717
rclavicle -1.59028e-015 -8.98507e-014
rhumerus -36.3123 -17.3486 -87.1347
rradius 29.7883
rwrist 4.91584
rhand -15.6246 19.2557
rfingers 7.12502
rthumb 10.5623 -10.4589
lclavicle -1.59028e-015 -8.98507e-014
lhumerus -16.1247 -21.1014 59.9259
lradius 61.9645
lwrist 0.708971
lhand -40.6058 -11.2024
lfingers 7.12502
lthumb -13.5517 18.3366
rfemur -41.1126 2.16103 8.30063
rtibia 57.499
rfoot -17.5042 8.70158
rtoes -11.4976
lfemur 3.2152 5.13241 -19.256
ltibia 38.9042
lfoot -28.5966 3.59365
ltoes -34.7946
208
root 1.20821 17.6565 5.73745 -177.21 -5.51242 175.598
lowerback 4.54531 1.00104 -4.41106
upperback 11.4325 -0.034501 -4.68721
thorax 9.54896 -0.87098 -2.66982
lowerneck -8.09752 -0.58418 -7.02748
upperneck 1.88274 -0.273573 3.82994
head 2.05049 -0.109845 2.47355
rclavicle 1.70955e-014 2.8625e-014
rhumerus -35.7085 -17.8356 -87.3566
rradius 28.8988
rwrist 4.91098
rhand -15.7956 19.0484
rfingers 7.12502
rthumb 10.3974 -10.6746
lclavicle 1.70955e-014 2.8625e-014
lhumerus -16.1665 -21.119 60.7651
lradius 59.858
lwrist 0.103341
lhand -39.9299 -11.2594
lfingers 7.12502
lthumb -12.9002 18.3218
rfemur -42.0175 2.34006 7.76337
rtibia 58.2714
rfoot -17.6397 8.73907
rtoes -11.8359
lfemur 2.85619 5.80473 -19.521
ltibia 38.9653
lfoot -29.6473 2.9164
ltoes -33.569
209
root 1.16796 17.6068 5.78326 -176.933 -5.50301 175.376
lowerback 4.69507 0.9678 -4.48485
upperback 11.5142 -0.117095 -4.75467
thorax 9.55339 -0.928669 -2.70761
lowerneck -7.9694 -0.594729 -6.72643
upperneck 1.5096 -0.321518 3.61641
head 1.90077 -0.136574 2.33799
rclavicle -1.98785e-015 4.53229e-014
rhumerus -35.1812 -18.4452 -87.4589
rradius 27.9108
rwrist 5.02527
rhand -15.7633 18.8966
rfingers 7.12502
rthumb 10.4285 -10.8248
lclavicle -1.98785e-015 4.53229e-014
lhumerus -16.1432 -21.3068 61.6064
lradius 57.5969
lwrist -0.467686
lhand -39.156 -11.4967
lfingers 7.12502
lthumb -12.1541 18.1302
rfemur -42.7718 2.46543 7.26829
rtibia 58.874
rfoot -17.7509 8.69557
rtoes -12.3226
lfemur 2.40129 6.4207 -19.754
ltibia 39.1073
lfoot -30.541 2.17017
ltoes -32.2645
210
root 1.12987 17.566 5.82297 -176.685 -5.54813 175.154
lowerback 4.86543 0.935522 -4.53744
upperback 11.5777 -0.197555 -4.84286
thorax 9.52523 -0.981072 -2.7774
lowerneck -7.69753 -0.619982 -6.39118
upperneck 1.11076 -0.400657 3.4238
head 1.71915 -0.17864 2.20205
rclavicle -4.21423e-014 -6.91771e-014
rhumerus -34.7266 -19.0688 -87.5467
rradius 26.914
rwrist 5.17337
rhand -15.7017 18.8508
rfingers 7.12502
rthumb 10.4879 -10.8676
lclavicle -4.21423e-014 -6.91771e-014
lhumerus -16.229 -21.5728 62.4273
lradius 55.6449
lwrist -1.05697
lhand -38.0836 -11.7834
lfingers 7.12502
lthumb -11.1199 17.902
rfemur -43.4016 2.54959 6.78747
rtibia 59.3697
rfoot -17.8561 8.60354
rtoes -12.8241
lfemur 1.93332 6.95401 -19.9921
ltibia 39.3571
lfoot -31.3266 1.42341
ltoes -30.9384
211
root 1.09318 17.5515 5.85233 -176.474 -5.60471 174.971
lowerback 5.02832 0.912116 -4.5642
upperback 11.6652 -0.268507 -4.90769
thorax 9.52868 -1.02902 -2.83772
lowerneck -7.48051 -0.673397 -6.13922
upperneck 0.754352 -0.507561 3.29029
head 1.56525 -0.234196 2.10253
rclavicle 2.38542e-015 -6.36111e-015
rhumerus -34.3697 -19.5975 -87.6272
rradius 26.0968
rwrist 5.47412
rhand -15.5852 19.0205
rfingers 7.12502
rthumb 10.6003 -10.6921
lclavicle 2.38542e-015 -6.36111e-015
lhumerus -16.2476 -21.8669 63.2738
lradius 53.791
lwrist -1.79858
lhand -36.8289 -11.9787
lfingers 7.12502
lthumb -9.90961 17.768
rfemur -43.8192 2.65798 6.37049
rtibia 59.6972
rfoot -17.9496 8.44775
rtoes -13.3628
lfemur 1.53582 7.42532 -20.2032
ltibia 39.5882
lfoot -31.9828 0.707414
ltoes -29.6652
212
root 1.05963 17.5204 5.87754 -176.311 -5.68311 174.813
lowerback 5.22101 0.899629 -4.58063
upperback 11.7939 -0.334599 -4.93223
thorax 9.56135 -1.07898 -2.86225
lowerneck -7.4301 -0.762101 -6.00268
upperneck 0.485918 -0.643745 3.19921
head 1.47326 -0.304488 2.03986
rclavicle -7.95139e-016 1.59028e-014
rhumerus -34.0394 -19.9455 -87.7076
rradius 25.4831
rwrist 5.8604
rhand -15.3424 19.206
rfingers 7.12502
rthumb 10.8345 -10.4945
lclavicle -7.95139e-016 1.59028e-014
lhumerus -16.1886 -22.1023 64.1847
lradius 52.0675
lwrist -2.79829
lhand -35.5544 -12.0178
lfingers 7.12502
lthumb -8.67983 17.7837
rfemur -44.2374 2.74429 5.99145
rtibia 60.0355
rfoot -18.0041 8.25184
rtoes -14.0156
lfemur 1.18539 7.83314 -20.3772
ltibia 39.8433
lfoot -32.5076 0.26266
ltoes -29.0172
213
root 1.02824 17.4946 5.89635 -176.169 -5.7658 174.672
lowerback 5.42638 0.904147 -4.57749
upperback 11.9388 -0.381932 -4.94431
thorax 9.60544 -1.11997 -2.88446
lowerneck -7.51828 -0.882624 -5.94597
upperneck 0.314982 -0.809657 3.16534
head 1.44052 -0.38896 2.0114
rclavicle 2.14687e-014 7.55382e-014
rhumerus -33.7288 -20.2661 -87.7615
rradius 25.0201
rwrist 6.43392
rhand -14.9104 19.2425
rfingers 7.12502
rthumb 11.2512 -10.4357
lclavicle 2.14687e-014 7.55382e-014
lhumerus -16.0523 -22.3869 65.0958
lradius 50.4693
lwrist -4.07855
lhand -34.5767 -12.0379
lfingers 7.12502
lthumb -7.73627 17.8006
rfemur -44.5859 2.81808 5.64577
rtibia 60.3044
rfoot -18.0306 8.05222
rtoes -14.5923
lfemur 0.905431 8.20993 -20.5344
ltibia 40.0216
lfoot -32.9234 0.0745035
ltoes -28.9951
214
root 0.999369 17.476 5.90951 -176.08 -5.90403 174.553
lowerback 5.65819 0.90235 -4.55244
upperback 12.0988 -0.442866 -4.94297
thorax 9.65125 -1.1676 -2.90497
lowerneck -7.56776 -1.00922 -5.92889
upperneck 0.114238 -0.983649 3.16115
head 1.39235 -0.477267 1.99933
rclavicle -9.54166e-015 -1.03368e-014
rhumerus -33.4309 -20.4857 -87.8373
rradius 24.6484
rwrist 6.93275
rhand -14.3146 19.1972
rfingers 7.12502
rthumb 11.8258 -10.4489
lclavicle -9.54166e-015 -1.03368e-014
lhumerus -15.9366 -22.7171 66.0138
lradius 49.063
lwrist -5.4618
lhand -34.2325 -12.2098
lfingers 7.12502
lthumb -7.40395 17.6406
rfemur -44.8153 2.84358 5.35367
rtibia 60.536
rfoot -18.071 7.80027
rtoes -15.3701
lfemur 0.700677 8.52183 -20.6453
ltibia 40.1895
lfoot -33.2654 -0.201258
ltoes -28.7825
215
root 0.972156 17.466 5.91758 -176.019 -6.0625 174.478
lowerback 5.90098 0.901232 -4.48505
upperback 12.2585 -0.502929 -4.93028
thorax 9.69021 -1.21086 -2.93604
lowerneck -7.64343 -1.14467 -5.92513
upperneck -0.0011099 -1.16589 3.18198
head 1.37745 -0.569016 1.99833
rclavicle 4.37326e-014 1.00187e-013
rhumerus -33.1635 -20.6646 -87.8974
rradius 24.319
rwrist 7.45055
rhand -13.5983 19.1874
rfingers 7.12502
rthumb 12.5164 -10.4178
lclavicle 4.37326e-014 1.00187e-013
lhumerus -15.9294 -23.2392 66.9139
lradius 47.9159
lwrist -6.70038
lhand -34.47 -12.51
lfingers 7.12502
lthumb -7.63325 17.3322
rfemur -44.9489 2.83538 5.12678
rtibia 60.6833
rfoot -18.0435 7.5706
rtoes -15.998
lfemur 0.57297 8.81898 -20.6958
ltibia 40.2659
lfoot -33.4817 -0.427667
ltoes -28.7905
216
root 0.947819 17.4626 5.92048 -175.987 -6.26796 174.416
lowerback 6.13778 0.892853 -4.42049
upperback 12.428 -0.573026 -4.89727
thorax 9.74415 -1.26054 -2.9445
lowerneck -7.65342 -1.28485 -5.95876
upperneck -0.159663 -1.35521 3.21251
head 1.33796 -0.664423 2.00666
rclavicle -7.95139e-016 3.02153e-014
rhumerus -32.9173 -20.4405 -88.0712
rradius 24.0617
rwrist 7.76793
rhand -13.0094 19.2212
rfingers 7.12502
rthumb 13.0841 -10.3484
lclavicle -7.95139e-016 3.02153e-014
lhumerus -16.0098 -23.8993 67.847
lradius 46.9824
lwrist -7.7038
lhand -34.9205 -12.8243
lfingers 7.12502
lthumb -8.06805 17.0016
rfemur -44.974 2.77143 4.94613
rtibia 60.7585
rfoot -18.0181 7.31042
rtoes -16.8394
lfemur 0.521187 9.06785 -20.71
ltibia 40.2656
lfoot -33.5907 -0.731709
ltoes -28.6551
217
root 0.925101 17.4664 5.91824 -175.982 -6.49522 174.423
lowerback 6.35484 0.867404 -4.30124
upperback 12.604 -0.663272 -4.84562
thorax 9.81672 -1.31529 -2.96436
lowerneck -7.63801 -1.42069 -6.0533
upperneck -0.318411 -1.53563 3.30707
head 1.2956 -0.754186 2.04764
rclavicle -2.54444e-014 -4.77083e-015
rhumerus -32.7023 -19.7158 -88.4111
rradius 23.932
rwrist 7.74641
rhand -12.5756 19.2854
rfingers 7.12502
rthumb 13.5023 -10.2569
lclavicle -2.54444e-014 -4.77083e-015
lhumerus -16.1145 -24.5602 68.82
lradius 46.1326
lwrist -8.64419
lhand -35.4692 -13.1229
lfingers 7.12502
lthumb -8.59761 16.682
rfemur -44.9228 2.69072 4.85976
rtibia 60.7746
rfoot -17.9642 7.04574
rtoes -17.7876
lfemur 0.538735 9.20506 -20.6645
ltibia 40.1821
lfoot -33.6124 -0.998745
ltoes -28.5152
